<?xml version="1.0" encoding="UTF-8" standalone="no"?>
<!DOCTYPE svg PUBLIC "-//W3C//DTD SVG 1.1//EN" "http://www.w3.org/Graphics/SVG/1.1/DTD/svg11.dtd">
<svg version="1.1" xmlns="http://www.w3.org/2000/svg" xmlns:xlink="http://www.w3.org/1999/xlink" preserveAspectRatio="xMidYMid meet" viewBox="0 0 640 640" width="640" height="640"><defs><path d="M2.29 238.47C2.29 369.79 109.41 476.63 241.07 476.63C372.74 476.63 479.85 369.79 479.85 238.47C479.85 107.15 372.74 0.32 241.07 0.32C109.41 0.32 2.29 107.15 2.29 238.47Z" id="lboQAQcOK"></path><path d="M161.36 397.1C161.36 528.42 268.47 635.25 400.14 635.25C531.8 635.25 638.92 528.42 638.92 397.1C638.92 265.78 531.8 158.94 400.14 158.94C268.47 158.94 161.36 265.78 161.36 397.1Z" id="cBlXF9TND"></path><path d="M453.96 165.22C281.41 125.53 128.22 280.43 167.6 450.83C169.85 460.55 177.46 468.15 187.21 470.39C358.4 509.76 513.27 356.53 473.57 184.78C471.33 175.05 463.71 167.46 453.96 165.22Z" id="b1rZ2Z3WS2"></path><path d="M287.03 187.5C287.35 185.69 289.91 171.19 290.23 169.38C292.75 155.19 283.24 141.65 269.01 139.15C254.79 136.64 241.22 146.12 238.71 160.32C222.98 249.27 223.41 244.54 223.88 249.62C224.8 259.56 231.23 267.88 240.18 271.46C243.89 272.93 238.45 271.72 323.88 286.75C338.11 289.25 351.68 279.77 354.19 265.58C356.7 251.39 347.2 237.86 332.97 235.35C331.1 235.03 316.17 232.4 314.31 232.07C353.02 211.94 398.03 205.86 442.14 215.96C456.23 219.19 470.26 210.41 473.49 196.36C476.72 182.32 467.93 168.32 453.84 165.1C399.03 152.55 339.46 159.29 287.03 187.5Z" id="aBTzfGoPT"></path><path d="M408.85 369.98C401.22 362.13 402.27 363.76 316.1 348.61C301.86 346.1 288.3 355.58 285.79 369.77C283.28 383.96 292.78 397.5 307.01 400C308.88 400.33 323.81 402.95 325.67 403.28C286.96 423.42 241.95 429.49 197.84 419.39C183.76 416.17 169.72 424.94 166.49 438.99C163.26 453.03 172.05 467.03 186.14 470.26C240.32 482.66 299.97 476.36 352.95 447.86C352.63 449.67 350.07 464.16 349.75 465.97C347.24 480.17 356.74 493.7 370.97 496.2C385.19 498.71 398.77 489.23 401.28 475.04C416.73 387.63 416.35 391.52 416.21 387.25C416 380.97 413.57 374.83 408.85 369.98Z" id="bNuT5fnhW"></path></defs><g><g><g><use xlink:href="#lboQAQcOK" opacity="1" fill="#f50057" fill-opacity="1"></use><g><use xlink:href="#lboQAQcOK" opacity="1" fill-opacity="0" stroke="#000000" stroke-width="1" stroke-opacity="0"></use></g></g><g><use xlink:href="#cBlXF9TND" opacity="1" fill="#00e676" fill-opacity="1"></use><g><use xlink:href="#cBlXF9TND" opacity="1" fill-opacity="0" stroke="#000000" stroke-width="1" stroke-opacity="0"></use></g></g><g><use xlink:href="#b1rZ2Z3WS2" opacity="1" fill="#ffea73" fill-opacity="1"></use><g><use xlink:href="#b1rZ2Z3WS2" opacity="1" fill-opacity="0" stroke="#000000" stroke-width="1" stroke-opacity="0"></use></g></g><g><use xlink:href="#aBTzfGoPT" opacity="1" fill="#29434e" fill-opacity="1"></use><g><use xlink:href="#aBTzfGoPT" opacity="1" fill-opacity="0" stroke="#000000" stroke-width="1" stroke-opacity="0"></use></g></g><g><use xlink:href="#bNuT5fnhW" opacity="1" fill="#29434e" fill-opacity="1"></use><g><use xlink:href="#bNuT5fnhW" opacity="1" fill-opacity="0" stroke="#000000" stroke-width="1" stroke-opacity="0"></use></g></g></g></g></svg>